<?xml version="1.0" encoding="utf-8"?>
<!-- Generator: Adobe Illustrator 23.0.3, SVG Export Plug-In . SVG Version: 6.00 Build 0)  -->
<svg version="1.1" id="Layer_1" xmlns="http://www.w3.org/2000/svg" xmlns:xlink="http://www.w3.org/1999/xlink" x="0px" y="0px"
	 viewBox="0 0 14 13" style="enable-background:new 0 0 14 13;" xml:space="preserve">
<style type="text/css">
	.st0{fill-rule:evenodd;clip-rule:evenodd;fill:#FFAB00;}
</style>
<polyline class="stL" points="6.9,9.5 3.9,11.1 4.4,7.9 2,5.6 5.3,5.1 6.9,1.9 "/>
<polyline class="stR" points="6.9,1.9 8.5,5.1 11.8,5.6 9.4,7.9 9.9,11.1 6.9,9.5 "/>
<path class="stL" d="M6.9,0.2c-0.2,0-0.5,0.1-0.6,0.3L4.6,4.1l-4,0.5C0.4,4.6,0.2,4.8,0.2,5c0,0.2,0.1,0.3,0.2,0.4l2.8,2.8l-0.5,4
	c0,0.1,0,0.1,0,0.2c0,0.1,0.1,0.3,0.3,0.3c0.1,0,0.2,0,0.3-0.1l3.6-1.9"/>
<path class="stR" d="M6.9,0.2c0.2,0,0.5,0.1,0.6,0.3l1.7,3.6l4,0.5c0.2,0,0.4,0.2,0.4,0.4c0,0.2-0.1,0.3-0.2,0.4l-2.8,2.8l0.5,4
	c0,0.1,0,0.1,0,0.2c0,0.1-0.1,0.3-0.3,0.3c-0.1,0-0.2,0-0.3-0.1l-3.6-1.9"/>
</svg>
