<svg xmlns="http://www.w3.org/2000/svg" width="13" height="12" viewBox="0 0 13 12">
  <defs>
    <style>
      .cls-1 {
        fill: #78829d;
        fill-rule: evenodd;
      }
    </style>
  </defs>
  <path id="_" data-name="" class="cls-1" d="M33.8,180.734a1.048,1.048,0,0,0-.461-0.336,1.252,1.252,0,0,1-.039.446l-2.344,7.711a0.742,0.742,0,0,1-.711.445H23.039a1.088,1.088,0,0,1-1.125-.547,0.314,0.314,0,0,1,.008-0.336,0.362,0.362,0,0,1,.3-0.117h6.789c0.992,0,1.2-.266,1.563-1.469l2.141-7.078a1.148,1.148,0,0,0-.141-1.015A1.08,1.08,0,0,0,31.68,178H25.734a1.794,1.794,0,0,0-.4.07l0.008-.023c-0.992-.281-1.055.789-1.383,1.273a2,2,0,0,0-.344.485c-0.023.14,0.055,0.273,0.039,0.406a4.115,4.115,0,0,1-.547,1.414,1.533,1.533,0,0,0-.344.414,2.452,2.452,0,0,0,.016.469,4.7,4.7,0,0,1-.524,1.422,2.075,2.075,0,0,0-.266.4c-0.039.133,0.039,0.305,0,.453a5.576,5.576,0,0,1-.586,1.43,1.89,1.89,0,0,0-.32.531c-0.016.094,0.055,0.2,0.047,0.321-0.008.187-.039,0.343-0.055,0.5a1.447,1.447,0,0,0,.016.992A2.218,2.218,0,0,0,23.031,190h7.211a1.707,1.707,0,0,0,1.555-1.18l2.148-7.078A1.163,1.163,0,0,0,33.8,180.734Zm-8.312.016,0.164-.5a0.376,0.376,0,0,1,.328-0.25h4.75a0.175,0.175,0,0,1,.172.25l-0.164.5a0.376,0.376,0,0,1-.328.25h-4.75A0.175,0.175,0,0,1,25.492,180.75Zm-0.648,2,0.164-.5a0.376,0.376,0,0,1,.328-0.25h4.75a0.175,0.175,0,0,1,.172.25l-0.164.5a0.376,0.376,0,0,1-.328.25h-4.75A0.175,0.175,0,0,1,24.844,182.75Z" transform="translate(-21 -178)"/>
</svg>
