<svg xmlns="http://www.w3.org/2000/svg" width="13" height="12.406" viewBox="0 0 13 12.406">
  <defs>
    <style>
      .cls-1 {
        fill: #ffab00;
        fill-rule: evenodd;
      }
    </style>
  </defs>
  <path id="_" data-name="" class="cls-1" d="M888.883,536.164l0.562,3.289L886.5,537.9l-2.953,1.555,0.57-3.289-2.39-2.32,3.3-.485,1.477-2.984,1.477,2.984,3.3,0.485ZM893,533.375a0.439,0.439,0,0,0-.437-0.36l-3.922-.57-1.758-3.555a0.389,0.389,0,0,0-.766,0l-1.758,3.555-3.921.57a0.433,0.433,0,0,0-.438.36,0.614,0.614,0,0,0,.2.375l2.844,2.765-0.672,3.907a1.017,1.017,0,0,0-.015.156,0.342,0.342,0,0,0,.328.391,0.665,0.665,0,0,0,.312-0.094l3.508-1.844,3.508,1.844a0.642,0.642,0,0,0,.312.094,0.334,0.334,0,0,0,.321-0.391,1.013,1.013,0,0,0-.008-0.156l-0.672-3.907,2.836-2.765A0.587,0.587,0,0,0,893,533.375Z" transform="translate(-880 -528.563)"/>
</svg>
