<svg id="Layer_1" data-name="Layer 1" xmlns="http://www.w3.org/2000/svg" viewBox="0 0 13 12.4"><defs><style>.cls-1{fill:#ffab00;fill-rule:evenodd;}</style></defs><title>StarHole2</title><polygon class="cls-1" points="8.88 7.59 9.45 10.88 6.5 9.33 3.55 10.89 4.12 7.6 1.73 5.28 5.03 4.79 6.5 1.81 7.98 4.79 11.28 5.28 8.88 7.59"/><path class="cls-1" d="M13,4.81a.44.44,0,0,0-.44-.36L8.64,3.88,6.88.33A.39.39,0,0,0,6.43,0a.39.39,0,0,0-.31.32L4.36,3.88.44,4.45A.44.44,0,0,0,0,4.81a.62.62,0,0,0,.2.38L3,8l-.67,3.91a.81.81,0,0,0,0,.16.33.33,0,0,0,.29.38h0a.71.71,0,0,0,.32-.1l3.51-1.84L10,12.31a.71.71,0,0,0,.32.1.34.34,0,0,0,.32-.35v0c0-.06,0-.11,0-.16L10,8,12.8,5.19A.62.62,0,0,0,13,4.81Z" transform="translate(0 -0.01)"/></svg>