<svg xmlns="http://www.w3.org/2000/svg" width="12" height="12" viewBox="0 0 12 12">
  <defs>
    <style>
      .cls-1 {
        fill: #fff;
        fill-rule: evenodd;
      }
    </style>
  </defs>
  <path id="_" data-name="" class="cls-1" d="M27,216a6,6,0,1,0,6,6A6,6,0,0,0,27,216Zm2.141,4.07a0.471,0.471,0,0,1,.336-0.093c0.086,0.023.156,0.054,0.055,0.125a0.6,0.6,0,0,1-.172.015c0.07,0.016.172,0.047,0.141,0.117,0.2,0.118-.062.258-0.2,0.243,0.063,0.007-.133.125-0.133,0.117a0.58,0.58,0,0,0-.219.109c-0.062.086,0.024,0.235-.094,0.2-0.047.1-.227,0.047-0.3,0.157,0.086,0.093-.086.226-0.172,0.109a1.467,1.467,0,0,0-.117.164,0.077,0.077,0,0,1-.016.125,0.8,0.8,0,0,1,.133.078,0.1,0.1,0,0,1-.086.07,0.277,0.277,0,0,1-.117.274,1.806,1.806,0,0,1-.281.14c-0.141.133-.234,0.329,0.016,0.383,0.008,0,.008.258,0.016,0.266,0.016,0.094.055,0.367-.109,0.266a0.7,0.7,0,0,1-.148-0.344,0.427,0.427,0,0,0-.094-0.188c-0.1.117-.117,0.032-0.2-0.023a2.12,2.12,0,0,1-.258-0.078c-0.117.086-.2,0.062-0.227-0.071a0.384,0.384,0,0,0,.024.18c-0.039.078-.109,0.063-0.172,0.016a2.661,2.661,0,0,0-.437,0,0.571,0.571,0,0,1,.063.047c-0.023.093-.078,0.039-0.125,0.07s-0.1.117-.148,0.156a1.274,1.274,0,0,1,0,.594,0.7,0.7,0,0,0,.25.516,0.686,0.686,0,0,0,.375.023,0.289,0.289,0,0,0,.133-0.227,0.2,0.2,0,0,1,.2-0.156c0.336-.015.078,0.258,0.039,0.4-0.024.1-.031,0.218-0.047,0.312a0.291,0.291,0,0,0,.117.008c0-.031.023-0.07,0.023-0.094a0.154,0.154,0,0,0,.25.008,0.878,0.878,0,0,1,.18.273c0.016,0.11.117,0.227-.031,0.227-0.109,0,.016.219,0.031,0.258a0.272,0.272,0,0,0,.383.14,0.271,0.271,0,0,1-.109.25A0.235,0.235,0,0,1,27.7,225a0.122,0.122,0,0,1-.055.07c-0.078-.093-0.211-0.14-0.281-0.234a1.033,1.033,0,0,1-.18-0.359,0.661,0.661,0,0,1-.43-0.086,0.677,0.677,0,0,0-.391-0.282,0.464,0.464,0,0,1-.344.016,3.038,3.038,0,0,1-.312-0.172,0.71,0.71,0,0,1-.391-0.3,2.191,2.191,0,0,0-.1-0.39,0.5,0.5,0,0,0-.289-0.235c0.094,0-.086-0.234-0.109-0.258a0.878,0.878,0,0,1-.336-0.531,0.426,0.426,0,0,0-.187-0.094,1.979,1.979,0,0,0,.078.235c0.039,0.078.086,0.148,0.133,0.226a0.871,0.871,0,0,1,.188.485c-0.1.031-.07-0.117-0.1-0.18a2.021,2.021,0,0,1-.242-0.211c0.016-.008.023-0.008,0.039-0.015,0.008-.133-0.187-0.243-0.156-0.336a1.421,1.421,0,0,1-.187-0.36,1.032,1.032,0,0,0-.289-0.219,0.587,0.587,0,0,1-.219-0.406c-0.156.039-.234-0.328-0.211-0.422,0,0-.016,0-0.016-0.007a1.111,1.111,0,0,1,.1-0.586c-0.086.007-.109-0.2-0.086-0.243a0.242,0.242,0,0,1,.141.1,0.137,0.137,0,0,0,.078-0.141,0.555,0.555,0,0,0-.164-0.164c-0.023-.015-0.336-0.218-0.344-0.211a0.109,0.109,0,0,0-.024-0.148c-0.148.117-.07-0.109-0.148-0.133a0.222,0.222,0,0,1-.094-0.062,5.078,5.078,0,0,1,1.836-1.735,1.127,1.127,0,0,1,.172-0.008,0.726,0.726,0,0,1,.32.2,0.2,0.2,0,0,0-.039-0.141,0.238,0.238,0,0,1,.172-0.094,0.474,0.474,0,0,1,.234.008,1.865,1.865,0,0,0-.156-0.2,0.16,0.16,0,0,0-.039.039,0.381,0.381,0,0,0-.328.054,1.72,1.72,0,0,1-.18.094,0.13,0.13,0,0,1-.094.008,4.746,4.746,0,0,1,.734-0.32c0.047,0.031.094,0.086,0.164,0.14-0.047-.039-0.047.141-0.031,0.172a0.452,0.452,0,0,0,.391.039c-0.008,0,.344.047,0.273-0.039a1.687,1.687,0,0,0,.125.266,0.692,0.692,0,0,0,.016-0.219,0.856,0.856,0,0,1,.2-0.094c0.055-.039-0.039-0.093-0.062-0.109-0.078-.047-0.383-0.07-0.234-0.25a0.339,0.339,0,0,1,.313.008c0.086,0.047.18,0.133,0.063,0.211,0.055,0.007.313,0.078,0.273,0.179a0.172,0.172,0,0,1,.125-0.117,0.4,0.4,0,0,1,.117.211c0.109,0.2.3-.195,0.328-0.18-0.141-.054.125-0.125,0.2-0.1,0.055,0.023.141,0.211,0.039,0.2,0.086,0.078.094,0.25-.062,0.242-0.109-.008-0.234-0.156-0.336-0.039-0.07.078-.1,0.2-0.172,0.266a0.446,0.446,0,0,1-.391.086,0.453,0.453,0,0,1-.133.218,0.449,0.449,0,0,0-.094.18,0.871,0.871,0,0,1-.039.242c0.133-.039.2,0.2,0.148,0.211a0.9,0.9,0,0,1,.453.031,0.5,0.5,0,0,1,.32.2,0.281,0.281,0,0,1,.227-0.008,0.307,0.307,0,0,1,.125.234c0.031,0.117.133,0.313,0.266,0.25,0.024-.015.2-0.094,0.133-0.14a0.234,0.234,0,0,1-.07-0.274,1.1,1.1,0,0,0,.25-0.219c0.063-.179-0.187-0.156-0.187-0.289a1.119,1.119,0,0,0,.094-0.195c0-.078-0.117-0.234-0.024-0.289a1.01,1.01,0,0,1,.524.078,0.866,0.866,0,0,1,.3.18H28.992c0.063,0.054.117,0.172,0.008,0.2,0.07-.016.273,0.062,0.133,0.109a0.83,0.83,0,0,0,.133-0.039c0.055-.031.086-0.086,0.156-0.047a0.682,0.682,0,0,1,.148-0.156,0.242,0.242,0,0,1,.117.156c0.031,0.071.117,0.094,0.148,0.164a0.331,0.331,0,0,0,.211.305c0.055,0.016.2-.07,0.2,0.047a0.162,0.162,0,0,0,.047-0.063,0.19,0.19,0,0,0,.188.219,0.729,0.729,0,0,1-.016.172,0.573,0.573,0,0,1-.234.094,0.557,0.557,0,0,0-.187.195,0.4,0.4,0,0,0-.4-0.086,1.819,1.819,0,0,0-.406.094,0.509,0.509,0,0,0-.172.117,0.574,0.574,0,0,1-.1.18A0.542,0.542,0,0,0,29.141,220.07Zm-1.273,6.852c-0.008-.039-0.016-0.117-0.016-0.125-0.008-.125.125-0.211,0.117-0.328a0.16,0.16,0,0,1-.094-0.2,0.564,0.564,0,0,1,.227-0.313,0.439,0.439,0,0,0,.094-0.375c-0.039-.187-0.039-0.383-0.07-0.57,0.008,0.047.141,0.031,0.164,0.094a1.861,1.861,0,0,1,.086-0.18,0.592,0.592,0,0,1,.133-0.1c0.078-.047.242-0.226,0.336-0.117a1.156,1.156,0,0,0-.016.281,0.577,0.577,0,0,1,.063-0.218c0.125-.141.211,0.015,0.336,0.054a0.652,0.652,0,0,1,.281.172c-0.031-.031.125-0.086,0.141-0.094a0.346,0.346,0,0,1,.313.133,0.381,0.381,0,0,1,.266.289,1.039,1.039,0,0,1,.188.063,0.7,0.7,0,0,1,.2.062A4.962,4.962,0,0,1,27.867,226.922Z" transform="translate(-21 -216)"/>
</svg>
