<svg xmlns="http://www.w3.org/2000/svg" width="13" height="11" viewBox="0 0 13 11">
  <defs>
    <style>
      .cls-1 {
        fill: #78829d;
        fill-rule: evenodd;
      }
    </style>
  </defs>
  <path id="_" data-name="ïº" class="cls-1" d="M26,265a1,1,0,1,0-1,1A1.007,1.007,0,0,0,26,265Zm7,0a1,1,0,1,0-1,1A1.007,1.007,0,0,0,33,265Zm1-8.5a0.5,0.5,0,0,0-.5-0.5H24.117c-0.078-.375-0.094-1-0.617-1h-2a0.5,0.5,0,0,0,0,1h1.594l1.383,6.43A4.023,4.023,0,0,0,24,263.5a0.5,0.5,0,0,0,.5.5h8a0.5,0.5,0,0,0,0-1H25.313a1.181,1.181,0,0,0,.188-0.5,2.605,2.605,0,0,0-.1-0.547L33.555,261A0.512,0.512,0,0,0,34,260.5v-4Z" transform="translate(-21 -255)"/>
</svg>
