<svg xmlns="http://www.w3.org/2000/svg" width="13" height="12.406" viewBox="0 0 13 12.406">
  <defs>
    <style>
      .cls-1 {
        fill: #78829d;
        fill-rule: evenodd;
      }
    </style>
  </defs>
  <path id="_" data-name="" class="cls-1" d="M34,296.055a0.439,0.439,0,0,0-.437-0.36l-3.922-.57-1.758-3.555a0.389,0.389,0,0,0-.766,0l-1.758,3.555-3.922.57a0.433,0.433,0,0,0-.437.36,0.611,0.611,0,0,0,.2.375l2.844,2.765L23.367,303.1a1.044,1.044,0,0,0-.016.156,0.342,0.342,0,0,0,.328.39,0.666,0.666,0,0,0,.313-0.093l3.508-1.844,3.508,1.844a0.641,0.641,0,0,0,.313.093,0.336,0.336,0,0,0,.32-0.39,1.039,1.039,0,0,0-.008-0.156L30.961,299.2,33.8,296.43A0.585,0.585,0,0,0,34,296.055Z" transform="translate(-21 -291.25)"/>
</svg>
