<svg xmlns="http://www.w3.org/2000/svg" width="13.719" height="13.718" viewBox="0 0 13.719 13.718">
  <defs>
    <style>
      .cls-1 {
        fill: #78829d;
        fill-rule: evenodd;
      }
    </style>
  </defs>
  <path id="_" data-name="" class="cls-1" d="M29,639.145a0.282,0.282,0,0,0-.286-0.286H28.141a0.282,0.282,0,0,0-.286.286v3.142h-2a0.282,0.282,0,0,0-.286.286v0.571a0.282,0.282,0,0,0,.286.286h2.856A0.282,0.282,0,0,0,29,643.144v-4Zm3.713,3.142a4.856,4.856,0,1,1-4.856-4.856A4.861,4.861,0,0,1,32.711,642.287Zm2,0a6.855,6.855,0,1,0-6.855,6.856A6.857,6.857,0,0,0,34.711,642.287Z" transform="translate(-21 -635.438)"/>
</svg>
