<svg xmlns="http://www.w3.org/2000/svg" width="14" height="11" viewBox="0 0 14 11">
  <defs>
    <style>
      .cls-1 {
        fill: #78829d;
        fill-rule: evenodd;
      }
    </style>
  </defs>
  <path id="_" data-name="" class="cls-1" d="M25,338.75a0.75,0.75,0,0,0-.75-0.75h-2.5a0.75,0.75,0,0,0-.75.75v1.5a0.75,0.75,0,0,0,.75.75h2.5a0.75,0.75,0,0,0,.75-0.75v-1.5Zm0-4a0.75,0.75,0,0,0-.75-0.75h-2.5a0.75,0.75,0,0,0-.75.75v1.5a0.75,0.75,0,0,0,.75.75h2.5a0.75,0.75,0,0,0,.75-0.75v-1.5Zm10,4a0.75,0.75,0,0,0-.75-0.75h-7.5a0.75,0.75,0,0,0-.75.75v1.5a0.75,0.75,0,0,0,.75.75h7.5a0.75,0.75,0,0,0,.75-0.75v-1.5Zm-10-8a0.75,0.75,0,0,0-.75-0.75h-2.5a0.75,0.75,0,0,0-.75.75v1.5a0.75,0.75,0,0,0,.75.75h2.5a0.75,0.75,0,0,0,.75-0.75v-1.5Zm10,4a0.75,0.75,0,0,0-.75-0.75h-7.5a0.75,0.75,0,0,0-.75.75v1.5a0.75,0.75,0,0,0,.75.75h7.5a0.75,0.75,0,0,0,.75-0.75v-1.5Zm0-4a0.75,0.75,0,0,0-.75-0.75h-7.5a0.75,0.75,0,0,0-.75.75v1.5a0.75,0.75,0,0,0,.75.75h7.5a0.75,0.75,0,0,0,.75-0.75v-1.5Z" transform="translate(-21 -330)"/>
</svg>
